<?xml version="1.0" standalone="no"?><!DOCTYPE svg PUBLIC "-//W3C//DTD SVG 1.1//EN" "http://www.w3.org/Graphics/SVG/1.1/DTD/svg11.dtd"><svg t="1525761097415" class="icon" style="" viewBox="0 0 1024 1024" version="1.1" xmlns="http://www.w3.org/2000/svg" p-id="1634" xmlns:xlink="http://www.w3.org/1999/xlink" width="32" height="32"><defs><style type="text/css"></style></defs><path d="M956.5 601.2V794h-50V605c0-53.3-10.4-104.9-31-153.5-19.9-47-48.3-89.2-84.6-125.4-36.2-36.2-78.4-64.7-125.4-84.6-48.6-20.6-100.3-31-153.5-31-53.3 0-104.9 10.4-153.5 31-47 19.9-89.2 48.3-125.4 84.6-36.2 36.2-64.7 78.4-84.6 125.4-20.6 48.6-31 100.3-31 153.5v189h-50V601.2c2-243.7 200.3-440.7 444.5-440.7s442.4 196.9 444.5 440.7zM186.3 454.4l409.1 282.8v126.3H469.2L186.3 454.4z m359.2 309.1L383.2 651.3l112.2 162.2h50.1v-50z" fill="#ffffff" p-id="1635"></path></svg>