<?xml version="1.0" standalone="no"?><!DOCTYPE svg PUBLIC "-//W3C//DTD SVG 1.1//EN" "http://www.w3.org/Graphics/SVG/1.1/DTD/svg11.dtd"><svg t="1524724227576" class="icon" style="" viewBox="0 0 1024 1024" version="1.1" xmlns="http://www.w3.org/2000/svg" p-id="13231" xmlns:xlink="http://www.w3.org/1999/xlink" width="32" height="32"><defs><style type="text/css"></style></defs><path d="M510.260891 266.552845c-37.476543 0-67.861574 30.385031-67.861574 67.861574 0 37.47552 30.385031 67.861574 67.861574 67.861574 37.47552 0 67.860551-30.386054 67.860551-67.861574C578.121442 296.937876 547.736411 266.552845 510.260891 266.552845zM510.260891 368.345206c-18.738783 0-33.930787-15.2094-33.930787-33.930787 0-18.755156 15.193027-33.930787 33.930787-33.930787 18.73776 0 33.930787 15.175631 33.930787 33.930787C544.191678 353.135806 528.997628 368.345206 510.260891 368.345206z" p-id="13232" fill="#ffffff"></path><path d="M524.358981 860.344686c4.854565 4.041036 7.952112 10.138918 7.952112 16.96437 0 2.286066-0.347924 4.50664-0.99363 6.595208l0.347924-0.033769-21.157879 44.436048-19.102057-39.565111c-2.022053-3.313465-3.197832-7.257288-3.197832-11.432377 0-6.825452 3.097548-12.923334 7.952112-16.96437l-33.898041 0c-1.87265 5.300726-2.899026 11.000542-2.899026 16.96437 0 12.625552 4.605901 24.189935 12.243859 33.103956l21.901823 37.508265c1.325182 8.052396 8.317433 14.216793 16.750499 14.216793 8.134261 0 14.926968-5.732561 16.5837-13.386892l0.398066 0 24.620747-42.11519c5.848195-8.284687 9.293667-18.423605 9.293667-29.325909 0-5.963829-1.026376-11.663644-2.899026-16.96437L524.358981 860.34571z" p-id="13233" fill="#ffffff"></path><path d="M713.68086 647.149073 648.440997 633.562637c18.210757-55.199183 31.473829-117.064182 31.473829-180.191942 0-201.36517-103.614869-340.568583-118.277824-357.3682-14.645558-16.766872-51.294247-33.003672-51.376111-33.102932 0 0-37.411051 15.772218-51.377134 33.102932C444.916651 113.364931 340.605933 252.005524 340.605933 453.370695c0 63.684438 13.505595 126.095883 31.961946 181.666526l-58.156538 12.111852c-18.356067 3.811816-28.695552 21.439288-23.2444 39.399335l54.606689 179.860391c3.114944 10.304693 10.918677 19.084661 20.528546 24.452925l8.036024-99.837846c1.50733-18.654872 17.479093-36.84721 35.836183-40.690748l9.751085-2.022053c29.359678 58.338686 55.625902 95.066169 55.625902 95.066169l34.262338 0 35.156708 0c0 0 26.693965-37.326117 56.338123-96.484472l16.609283 3.439332c18.35709 3.843538 34.328853 22.034852 35.837206 40.690748l8.036024 99.837846c9.609869-5.368264 17.396205-14.148231 20.527522-24.452925l54.607712-179.860391C742.376413 668.589384 732.036927 650.960889 713.68086 647.149073zM469.850529 158.827355c11.680017-21.438265 40.409338-42.479487 40.409338-42.479487l0.032746 5.16872 0.016373-5.135974c0 0 30.667463 22.797215 42.34748 44.236504 2.469238 4.54041 7.322779 11.332093 13.419637 21.107737L455.221344 181.724855C461.915813 170.95558 467.249285 163.632801 469.850529 158.827355zM688.331519 729.923288c-3.744277 18.753109-5.699816 37.872562-8.102538 37.872562-4.555759 0-12.243859-40.624233-45.428655-52.188616-5.548366-1.916653-10.910491-3.803629-16.036231-5.599532 0.055259-0.121773 0.109494-0.242524 0.163729-0.364297-21.886473-7.65433-38.835494-13.619182-42.729174-15.009855-27.949562 61.500703-56.562227 96.888677-56.562227 96.888677l-9.426697 0-9.360182 0c0 0-27.503401-34.062793-54.92289-93.408413-8.498558 2.958378-21.401426 7.490601-36.309974 12.707416-4.432962 1.547239-9.033747 3.139503-13.758352 4.787026-33.18582 11.564383-42.530652 51.924603-47.101761 51.924603-2.15406 0-4.391007-20.37812-8.068769-37.046754-4.142343-18.687618-6.28003-33.630958-1.724271-38.60218 4.089132-4.427846 26.120914-11.641131 48.250934-18.013259 17.302061-4.943592 34.647101-9.413394 43.518143-11.645225-21.289885-55.268768-39.183418-125.880989-39.183418-207.362768 0-119.620401 23.526833-194.043415 45.065382-239.207034l148.049894 0c21.125133 44.534286 44.352137 118.559233 44.352137 239.207034 0 80.18832-17.346063 149.905148-38.222533 204.777897 6.862291 1.699712 23.964808 6.005784 42.285059 11.087523-0.040932 0.103354-0.079818 0.207731-0.119727 0.311085 26.077935 7.257288 54.259788 15.972786 58.733683 20.843724C695.820074 696.355775 691.744245 712.791096 688.331519 729.923288z" p-id="13234" fill="#ffffff"></path></svg>