<?xml version="1.0" standalone="no"?><!DOCTYPE svg PUBLIC "-//W3C//DTD SVG 1.1//EN" "http://www.w3.org/Graphics/SVG/1.1/DTD/svg11.dtd"><svg t="1524724345771" class="icon" style="" viewBox="0 0 1024 1024" version="1.1" xmlns="http://www.w3.org/2000/svg" p-id="14758" xmlns:xlink="http://www.w3.org/1999/xlink" width="32" height="32"><defs><style type="text/css"></style></defs><path d="M605.4 218.8c58.5 0 113.9 13 163.5 36.3C707.3 123.3 573.7 32 418.6 32 205.1 32 32 205.1 32 418.6c0 155.1 91.3 288.7 223.1 350.3-23.2-49.7-36.3-105.1-36.3-163.5C218.8 391.9 391.9 218.8 605.4 218.8z" p-id="14759" fill="#ffffff"></path><path d="M768.9 255.1c23.2 49.7 36.3 105.1 36.3 163.5 0 213.5-173.1 386.6-386.6 386.6-58.5 0-113.9-13-163.5-36.3C316.7 900.7 450.3 992 605.4 992c213.5 0 386.6-173.1 386.6-386.6C992 450.3 900.7 316.7 768.9 255.1z" p-id="14760" fill="#ffffff"></path></svg>