<?xml version="1.0" standalone="no"?><!DOCTYPE svg PUBLIC "-//W3C//DTD SVG 1.1//EN" "http://www.w3.org/Graphics/SVG/1.1/DTD/svg11.dtd"><svg t="1524724327370" class="icon" style="" viewBox="0 0 1024 1024" version="1.1" xmlns="http://www.w3.org/2000/svg" p-id="14585" xmlns:xlink="http://www.w3.org/1999/xlink" width="32" height="32"><defs><style type="text/css"></style></defs><path d="M1024 421.6c0-232.9-188.8-421.6-421.6-421.6-163 0-304.4 92.5-374.5 227.8C92.5 298 0 439.4 0 602.3c0 232.9 188.8 421.6 421.6 421.6 163 0 304.4-92.5 374.5-227.8C931.5 726 1024 584.6 1024 421.6zM674.5 855.2c-32.9 32.9-71.1 58.7-113.7 76.7-44 18.6-90.9 28.1-139.2 28.1s-95.1-9.4-139.2-28.1c-42.6-18-80.8-43.8-113.7-76.7-32.9-32.9-58.7-71.1-76.7-113.7-18.6-44-28.1-90.9-28.1-139.2s9.4-95.1 28.1-139.2c18-42.6 43.8-80.8 76.7-113.7 7.1-7.1 14.5-13.9 22.2-20.4-4.8 21.6-8 43.8-9.4 66.5 0 0.1 0 0.2 0 0.2-0.1 1.9-0.2 3.8-0.3 5.7 0 0.5 0 1-0.1 1.5-0.1 1.5-0.1 3.1-0.2 4.6 0 0.6 0 1.2-0.1 1.8 0 1.5-0.1 3-0.1 4.5 0 0.6 0 1.1 0 1.7 0 2 0 4.1 0 6.1 0 137.2 65.5 259 166.9 336 1.6 1.2 3.2 2.4 4.8 3.6 1.9 1.4 3.9 2.9 5.9 4.3 4.1 2.9 8.3 5.8 12.6 8.6 0 0 0 0 0 0 66.5 43.7 146 69.2 231.5 69.2 0.1 0 0.2 0 0.3 0 1.9 0 3.8 0 5.8 0 0.6 0 1.3 0 1.9 0 1.4 0 2.8-0.1 4.3-0.1 0.7 0 1.3 0 2-0.1 1.5 0 2.9-0.1 4.4-0.2 0.5 0 1.1 0 1.6-0.1 1.8-0.1 3.6-0.2 5.4-0.3 0.2 0 0.3 0 0.5 0 22.7-1.4 44.9-4.6 66.4-9.4C688.4 840.7 681.7 848.1 674.5 855.2zM833.1 694.9c4.8-21.6 8-43.8 9.4-66.4 0-0.2 0-0.3 0-0.5 0.1-1.8 0.2-3.6 0.3-5.5 0-0.5 0-1.1 0.1-1.6 0.1-1.5 0.1-2.9 0.2-4.4 0-0.6 0-1.3 0.1-1.9 0-1.4 0.1-2.9 0.1-4.3 0-0.6 0-1.2 0-1.9 0-2 0-3.9 0-5.9 0-0.1 0-0.1 0-0.2 0-154.9-83.6-290.4-208.1-363.6-2-1.2-4.1-2.4-6.1-3.5-2.2-1.3-4.5-2.5-6.8-3.8-4.3-2.4-8.7-4.6-13.2-6.9 0 0-0.1 0-0.1 0C552.6 196.5 488.9 180.7 421.6 180.7c-2 0-4.1 0-6.1 0-0.6 0-1.1 0-1.7 0-1.5 0-3 0.1-4.5 0.1-0.6 0-1.2 0-1.8 0.1-1.5 0.1-3.1 0.1-4.6 0.2-0.5 0-1 0-1.5 0.1-1.9 0.1-3.8 0.2-5.7 0.3-0.1 0-0.2 0-0.2 0-22.7 1.4-44.9 4.6-66.5 9.4 6.5-7.6 13.2-15 20.4-22.2 32.9-32.9 71.1-58.7 113.7-76.7 44-18.6 90.9-28.1 139.2-28.1s95.1 9.4 139.2 28.1c42.6 18 80.8 43.8 113.7 76.7 32.9 32.9 58.7 71.1 76.7 113.7 18.6 44 28.1 90.9 28.1 139.2s-9.4 95.1-28.1 139.2c-18 42.6-43.8 80.8-76.7 113.7C848.1 681.6 840.7 688.4 833.1 694.9z" p-id="14586" fill="#ffffff"></path></svg>