<?xml version="1.0" standalone="no"?><!DOCTYPE svg PUBLIC "-//W3C//DTD SVG 1.1//EN" "http://www.w3.org/Graphics/SVG/1.1/DTD/svg11.dtd"><svg t="1524724876913" class="icon" style="" viewBox="0 0 1024 1024" version="1.1" xmlns="http://www.w3.org/2000/svg" p-id="7181" xmlns:xlink="http://www.w3.org/1999/xlink" width="32" height="32"><defs><style type="text/css"></style></defs><path d="M227.555556 170.666667m-56.888889 0a56.888889 56.888889 0 1 0 113.777777 0 56.888889 56.888889 0 1 0-113.777777 0Z" fill="#ffffff" p-id="7182"></path><path d="M113.777778 341.333333m-56.888889 0a56.888889 56.888889 0 1 0 113.777778 0 56.888889 56.888889 0 1 0-113.777778 0Z" fill="#ffffff" p-id="7183"></path><path d="M284.444444 455.111111m-56.888888 0a56.888889 56.888889 0 1 0 113.777777 0 56.888889 56.888889 0 1 0-113.777777 0Z" fill="#ffffff" p-id="7184"></path><path d="M625.777778 455.111111m-56.888889 0a56.888889 56.888889 0 1 0 113.777778 0 56.888889 56.888889 0 1 0-113.777778 0Z" fill="#ffffff" p-id="7185"></path><path d="M625.777778 625.777778m-56.888889 0a56.888889 56.888889 0 1 0 113.777778 0 56.888889 56.888889 0 1 0-113.777778 0Z" fill="#ffffff" p-id="7186"></path><path d="M796.444444 625.777778m-56.888888 0a56.888889 56.888889 0 1 0 113.777777 0 56.888889 56.888889 0 1 0-113.777777 0Z" fill="#ffffff" p-id="7187"></path><path d="M796.444444 455.111111m-56.888888 0a56.888889 56.888889 0 1 0 113.777777 0 56.888889 56.888889 0 1 0-113.777777 0Z" fill="#ffffff" p-id="7188"></path><path d="M170.666667 853.333333m-56.888889 0a56.888889 56.888889 0 1 0 113.777778 0 56.888889 56.888889 0 1 0-113.777778 0Z" fill="#ffffff" p-id="7189"></path><path d="M256 654.222222m-85.333333 0a85.333333 85.333333 0 1 0 170.666666 0 85.333333 85.333333 0 1 0-170.666666 0Z" fill="#ffffff" p-id="7190"></path><path d="M398.222222 1024l284.444445-170.666667v-113.777777h-56.888889v79.644444l-170.666667 102.4V159.288889l170.666667 102.4V341.333333h56.888889V227.555556L398.222222 56.888889z" fill="#ffffff" p-id="7191"></path></svg>