<?xml version="1.0" standalone="no"?><!DOCTYPE svg PUBLIC "-//W3C//DTD SVG 1.1//EN" "http://www.w3.org/Graphics/SVG/1.1/DTD/svg11.dtd"><svg t="1524724851314" class="icon" style="" viewBox="0 0 1024 1024" version="1.1" xmlns="http://www.w3.org/2000/svg" p-id="6796" xmlns:xlink="http://www.w3.org/1999/xlink" width="32" height="32"><defs><style type="text/css"></style></defs><path d="M771.780267 596.5824c-10.922667 0-21.845333-4.181333-30.165334-12.501333a42.615467 42.615467 0 0 1 0-60.330667l147.2-147.2c66.56-66.517333 66.56-174.805333 0-241.365333-66.56-66.517333-174.805333-66.56-241.365333 0l-147.2 147.2a42.615467 42.615467 0 0 1-60.330667 0 42.692267 42.692267 0 0 1 0-60.330667l147.2-147.2c99.797333-99.84 262.229333-99.754667 362.026667-0.042667 99.797333 99.882667 99.797333 262.272 0 362.069334l-147.2 147.2a42.5472 42.5472 0 0 1-30.165333 12.501333M255.880533 1024c-65.578667 0-131.114667-24.96-181.034666-74.88-99.797333-99.84-99.797333-262.186667 0-362.026667l149.930666-149.888a42.615467 42.615467 0 0 1 60.330667 0 42.615467 42.615467 0 0 1 0 60.330667L135.176533 647.424c-66.517333 66.517333-66.517333 174.805333 0 241.365333 66.56 66.517333 174.805333 66.517333 241.408 0l149.888-149.930666a42.692267 42.692267 0 0 1 60.330667 0 42.692267 42.692267 0 0 1 0 60.330666l-149.888 149.930667c-49.92 49.92-115.498667 74.88-181.034667 74.88" p-id="6797" fill="#ffffff"></path><path d="M384 682.666667c-10.922667 0-21.845333-4.181333-30.165333-12.501334a42.615467 42.615467 0 0 1 0-60.330666l256-256a42.615467 42.615467 0 0 1 60.330666 0 42.615467 42.615467 0 0 1 0 60.330666l-256 256A42.5472 42.5472 0 0 1 384 682.666667" p-id="6798" fill="#ffffff"></path></svg>