<?xml version="1.0" standalone="no"?><!DOCTYPE svg PUBLIC "-//W3C//DTD SVG 1.1//EN" "http://www.w3.org/Graphics/SVG/1.1/DTD/svg11.dtd"><svg t="1524724732657" class="icon" style="" viewBox="0 0 1024 1024" version="1.1" xmlns="http://www.w3.org/2000/svg" p-id="5403" xmlns:xlink="http://www.w3.org/1999/xlink" width="32" height="32"><defs><style type="text/css"></style></defs><path d="M875.9 148L629.1 425.4 616 440.2v435.7l-2.2-1.8-2.4-1.5L408 743.4V440.2l-13.1-14.8L148.1 148h727.8m0-52H148.1c-44.4 0-68.4 52.1-39.5 85.8L356 460v283.4c0 17.8 9.1 34.4 24.1 43.9l203.4 129.2c9.9 7.9 21.2 11.5 32.2 11.5 26.9 0 52.2-21.2 52.2-52.1V460l247.4-278.2c29-33.7 5-85.8-39.4-85.8z" p-id="5404" fill="#ffffff"></path></svg>